<?xml version="1.0" standalone="no"?>
<!DOCTYPE svg PUBLIC "-//W3C//DTD SVG 20010904//EN"
 "http://www.w3.org/TR/2001/REC-SVG-20010904/DTD/svg10.dtd">
<svg version="1.0" xmlns="http://www.w3.org/2000/svg"
 width="435.000000pt" height="435.000000pt" viewBox="0 0 435.000000 435.000000"
 preserveAspectRatio="xMidYMid meet">
<metadata>
Created by potrace 1.14, written by Peter Selinger 2001-2017
</metadata>
<g transform="translate(0.000000,435.000000) scale(0.100000,-0.100000)"
fill="#000000" stroke="none">
<path d="M95 2753 c-51 -3 -73 -8 -83 -20 -8 -12 -12 -68 -12 -197 0 -210 -1
-205 110 -376 l71 -108 -3 -107 -3 -107 -40 -14 c-22 -7 -43 -14 -47 -14 -5 0
-8 48 -8 106 0 115 5 107 -57 89 -23 -6 -23 -9 -23 -161 0 -149 7 -194 32
-194 30 0 216 93 227 114 9 15 11 75 9 197 l-3 174 -82 125 c-45 69 -87 138
-92 153 -6 16 -11 69 -11 118 l0 89 50 0 50 0 0 -95 0 -95 34 0 c55 0 60 14
52 163 -4 83 -11 136 -19 143 -16 15 -66 21 -152 17z"/>
<path d="M648 2754 c-9 -3 -21 -15 -25 -27 -4 -12 -7 -202 -5 -422 2 -318 6
-403 16 -413 11 -12 32 -9 127 18 63 17 120 39 127 48 18 23 18 751 -1 776
-10 14 -32 18 -117 21 -58 2 -113 2 -122 -1z m164 -401 c2 -164 1 -304 0 -310
-4 -13 -62 -33 -94 -33 -17 0 -18 22 -18 314 l0 315 43 4 c23 2 47 4 54 5 10
2 13 -68 15 -295z"/>
<path d="M970 2361 l0 -401 28 6 c52 13 52 12 53 238 l0 211 43 -145 c24 -80
51 -171 60 -202 14 -50 20 -58 40 -58 57 0 56 -6 56 224 0 117 -3 281 -7 364
l-6 152 -39 0 -38 0 -1 -207 -1 -208 -58 203 c-31 111 -59 205 -62 207 -2 3
-19 8 -36 11 l-32 7 0 -402z"/>
<path d="M1317 2754 c-4 -4 -7 -169 -7 -366 0 -280 3 -358 13 -358 6 0 58 5
115 12 l102 12 0 47 0 48 -70 -6 -70 -6 0 111 0 111 58 3 57 3 0 45 0 45 -57
-3 -57 -3 -3 106 -3 105 73 0 73 0 -3 48 -3 47 -106 3 c-58 1 -108 -1 -112 -4z"/>
<path d="M1766 2744 c-14 -13 -16 -57 -16 -329 0 -295 1 -315 19 -327 24 -17
224 -9 243 10 9 9 13 44 13 110 l0 97 -42 3 -43 3 0 -70 0 -71 -50 0 -50 0 -1
225 c-1 124 -1 232 -1 240 0 8 0 20 1 25 0 6 24 10 51 10 l50 0 0 -71 0 -70
43 3 42 3 0 98 c0 126 -1 127 -141 127 -80 0 -106 -3 -118 -16z"/>
<path d="M2092 2428 l3 -333 43 -3 42 -3 0 290 0 291 44 0 43 0 7 -61 c3 -34
6 -82 6 -105 l0 -44 -45 0 c-25 0 -45 -3 -45 -7 0 -16 50 -210 73 -283 l23
-75 42 -3 c26 -2 42 1 42 8 0 6 -18 72 -41 147 -22 74 -39 136 -37 137 2 1 17
6 33 12 l30 9 3 158 c1 97 -2 165 -8 177 -10 18 -21 20 -135 20 l-125 0 2
-332z"/>
<path d="M2507 2738 c-3 -13 -27 -162 -53 -331 -52 -335 -52 -327 8 -327 24 0
27 4 33 48 11 82 11 82 64 82 48 0 48 0 55 -37 3 -21 6 -50 6 -64 0 -15 7 -30
16 -33 17 -7 74 -8 74 -2 0 14 -98 629 -105 664 -5 19 -12 22 -49 22 -37 0
-45 -3 -49 -22z m71 -310 l19 -128 -40 0 -40 0 7 48 c3 26 12 90 18 142 7 52
14 88 15 80 2 -8 11 -72 21 -142z"/>
<path d="M2752 2413 l3 -348 43 -3 42 -3 0 154 0 155 61 -5 60 -6 -3 49 -3 49
-57 3 -58 3 0 99 0 100 70 0 70 0 0 50 0 50 -115 0 -115 0 2 -347z"/>
<path d="M3004 2746 c-3 -8 -4 -29 -2 -48 3 -32 5 -33 51 -36 l47 -3 0 -320
c0 -297 1 -319 18 -319 9 0 27 -3 40 -6 l22 -6 0 326 0 326 45 0 45 0 0 50 0
50 -130 0 c-103 0 -132 -3 -136 -14z"/>
<path d="M3312 2373 l3 -388 45 -11 c25 -6 76 -18 113 -27 l67 -15 0 54 c0 60
3 57 -82 74 l-58 11 0 123 0 123 63 -1 62 -1 3 47 3 46 -63 9 -63 8 -3 112 -3
112 68 3 68 3 3 53 3 52 -116 0 -115 0 2 -387z"/>
<path d="M3599 2748 c-2 -7 -2 -197 1 -423 l5 -409 44 -13 44 -13 -7 381 -7
380 48 -3 48 -3 3 -137 3 -138 -36 0 -35 0 0 -52 c0 -29 13 -109 30 -177 16
-68 34 -157 41 -197 6 -41 17 -78 23 -82 13 -10 78 -33 82 -29 1 1 -17 95 -41
207 -25 113 -45 210 -45 217 0 6 8 9 20 6 47 -12 50 4 50 239 0 132 -4 227
-10 239 -10 17 -22 19 -134 19 -91 0 -125 -3 -127 -12z"/>
<path d="M3936 2698 c-3 -35 -7 -100 -10 -146 -4 -80 -4 -82 20 -88 14 -4 27
-4 30 -1 5 5 44 249 44 278 0 15 -8 19 -39 19 l-39 0 -6 -62z"/>
<path d="M4092 2748 c-8 -8 -12 -64 -12 -185 l0 -172 92 -178 92 -178 4 -107
c3 -69 1 -108 -5 -108 -18 0 -88 32 -95 44 -4 6 -8 54 -8 107 l0 97 -40 10
-40 10 0 -153 c0 -131 2 -156 18 -173 17 -20 199 -102 227 -102 23 0 27 35 23
236 l-3 189 -93 182 -92 183 0 90 0 90 44 0 c54 0 56 -4 56 -120 l0 -89 36 -7
c21 -4 40 -2 46 4 16 16 6 306 -11 326 -11 13 -35 16 -120 16 -70 0 -111 -4
-119 -12z"/>
<path d="M302 2688 l3 -63 45 -5 45 -5 3 -407 c1 -225 6 -408 11 -408 5 0 25
7 46 16 l38 15 -5 400 -5 399 43 0 44 0 0 60 0 60 -135 0 -136 0 3 -62z"/>
<path d="M1920 1836 l0 -116 25 0 c23 0 25 3 25 50 l0 50 35 0 c34 0 35 -1 35
-40 0 -45 21 -63 46 -39 11 11 12 34 6 109 -6 88 -9 95 -29 98 -21 3 -23 -1
-23 -42 0 -50 -10 -61 -45 -52 -20 5 -24 13 -27 49 -2 35 -7 43 -25 45 -23 3
-23 2 -23 -112z"/>
<path d="M2147 1939 c-15 -9 -17 -23 -16 -94 1 -46 5 -88 8 -93 9 -14 117 -23
145 -12 25 9 26 12 26 104 0 76 -3 95 -16 100 -25 10 -127 6 -147 -5z m111
-95 c3 -76 -4 -88 -47 -77 -19 5 -21 13 -21 80 l0 74 33 -3 32 -3 3 -71z"/>
<path d="M2362 1938 c-8 -8 -12 -47 -12 -110 0 -102 -1 -98 43 -102 7 -1 14
18 17 49 l5 50 16 -45 c9 -25 22 -45 30 -45 8 0 24 20 36 45 l22 45 1 -67 c0
-38 4 -68 9 -68 5 0 16 -3 25 -6 14 -5 16 9 16 124 0 111 -2 131 -16 136 -17
7 -53 -19 -55 -38 0 -6 -9 -29 -18 -51 l-18 -40 -31 68 c-30 66 -46 79 -70 55z"/>
<path d="M2623 1944 c-10 -4 -13 -42 -13 -138 0 -114 2 -135 18 -147 25 -22
121 -63 128 -56 14 14 -9 43 -46 59 -38 16 -40 18 -40 62 l0 46 40 -6 c25 -4
40 -3 40 4 0 19 -31 42 -56 42 -22 0 -24 4 -24 44 l0 45 43 3 c34 2 42 7 42
23 0 18 -7 20 -60 22 -33 1 -66 -1 -72 -3z"/>
<path d="M1596 1925 c-11 -30 -6 -111 8 -130 11 -15 11 -22 0 -44 -18 -34 -19
-140 -1 -147 7 -2 48 11 90 31 l77 36 0 64 c0 37 4 65 10 65 6 0 10 6 10 14 0
12 -13 14 -70 9 l-70 -6 0 42 c0 39 1 41 30 41 23 0 30 -4 30 -20 0 -16 7 -20
31 -20 29 0 30 2 27 38 l-3 37 -81 3 c-68 2 -83 0 -88 -13z m114 -194 c0 -45
-2 -50 -30 -60 l-30 -10 0 44 c0 45 19 75 46 75 10 0 14 -13 14 -49z"/>
</g>
</svg>
